<svg width="27" height="69" viewBox="0 0 27 69" fill="none" xmlns="http://www.w3.org/2000/svg">
<g clip-path="url(#clip0_566_474)">
<path d="M27 42.3421C23.7176 46.3537 20.4351 50.3652 17.1489 54.3748C16.2366 55.4883 15.3341 56.6133 14.3929 57.7037C13.8086 58.3806 13.1606 58.3979 12.5994 57.7152C8.38736 52.5998 4.19657 47.4691 2.48835e-06 42.3421L2.52189e-06 41.5748C0.993216 40.696 1.38665 40.7268 2.26607 41.7921C5.48293 45.6921 8.694 49.596 11.9089 53.4979C12.0073 53.6171 12.1095 53.7345 12.4084 54.0825C12.4084 53.521 12.4084 53.196 12.4084 52.8729C12.4084 45.9421 12.4084 39.0114 12.4123 32.0825C12.4123 31.7018 12.3332 31.2345 12.5203 30.9633C12.7498 30.6287 13.2184 30.2748 13.5868 30.2691C13.8915 30.2652 14.2926 30.7075 14.4816 31.046C14.6359 31.3191 14.553 31.7306 14.553 32.0825C14.5549 38.9806 14.553 45.8787 14.553 52.7787C14.553 53.1229 14.553 53.4671 14.553 53.8114C14.6166 53.8441 14.6803 53.8768 14.7439 53.9114C15.2955 53.246 15.8471 52.5806 16.3967 51.9133C19.2028 48.5037 22.0011 45.0902 24.8169 41.6883C25.6635 40.6633 26.2344 40.7018 27 41.7671C27 41.9595 27 42.1498 27 42.3421Z" fill="#00AD9C"/>
<path d="M13.1143 68.9998C11.5097 67.0998 9.8955 65.2094 8.30443 63.2998C5.52729 59.9652 2.7675 56.6171 2.9479e-06 53.2748L2.98144e-06 52.5075C0.806146 51.446 1.34422 51.4556 2.2545 52.5614C5.79343 56.8633 9.3285 61.1691 12.8655 65.471C13.0468 65.6902 13.2377 65.8998 13.5019 66.2037C14.8712 64.5441 16.2116 62.9267 17.5442 61.3056C19.9646 58.3633 22.3753 55.4133 24.8014 52.4748C25.65 51.446 26.2016 51.4671 27 52.5056C27 52.7633 27 53.0191 27 53.2748C24.4736 56.3171 21.951 59.3633 19.4188 62.3998C17.5809 64.6056 15.7294 66.7998 13.8857 68.9998L13.1143 68.9998Z" fill="#00AD9C"/>
<path d="M14.6896 1.2808C14.3 1.54811 13.9394 1.97118 13.5151 2.05003C12.8324 2.17695 12.4525 1.6808 12.4525 1.02311C12.4525 0.40003 12.871 -0.0768932 13.4592 0.0115684C13.9047 0.0788761 14.2904 0.542338 14.7012 0.828876C14.6973 0.980799 14.6954 1.1308 14.6915 1.28272L14.6896 1.2808Z" fill="#00AD9C"/>
<path d="M12.2793 9.47138C12.6901 9.17907 13.0701 8.71369 13.5194 8.63677C14.1173 8.53292 14.5184 9.01177 14.5281 9.63677C14.5396 10.3079 14.1655 10.7945 13.4847 10.6772C13.0566 10.6041 12.6901 10.1829 12.2967 9.91753C12.2909 9.76946 12.2851 9.61946 12.2793 9.47138Z" fill="#00AD9C"/>
<path d="M14.6915 18.5364C14.302 18.8056 13.9413 19.2287 13.517 19.3094C12.8324 19.4364 12.4505 18.9421 12.4525 18.2825C12.4525 17.6652 12.8575 17.1767 13.4572 17.2691C13.9027 17.3383 14.2885 17.7979 14.7012 18.0844C14.6973 18.2364 14.6954 18.3864 14.6915 18.5383L14.6915 18.5364Z" fill="#00AD9C"/>
<path d="M13.8553 27.9882C12.8254 27.9651 12.4494 27.5786 12.4532 26.9151C12.4552 26.2978 12.837 25.8844 13.4619 25.8709C14.1388 25.8575 14.5978 26.2863 14.4994 26.9401C14.4358 27.3651 14.0192 27.7382 13.8553 27.9882Z" fill="#00AD9C"/>
<path d="M13.6831 4.15381C13.9666 4.53458 14.4159 4.88073 14.4989 5.30189C14.6319 5.96727 14.1633 6.39996 13.4825 6.40189C12.8499 6.40189 12.3851 5.9865 12.4777 5.37304C12.5414 4.94419 12.9618 4.56919 13.2221 4.16919C13.3764 4.16535 13.5288 4.15958 13.6831 4.15573L13.6831 4.15381Z" fill="#00AD9C"/>
<path d="M13.7798 12.7981C14.0324 13.1981 14.4355 13.5769 14.503 14.0058C14.5994 14.6308 14.1327 15.0327 13.5021 15.0308C12.8213 15.0269 12.3526 14.5846 12.4838 13.9269C12.5667 13.5077 13.0257 13.1616 13.3169 12.7827C13.4712 12.7885 13.6255 12.7923 13.7817 12.7981L13.7798 12.7981Z" fill="#00AD9C"/>
<path d="M12.2931 22.3539C12.6962 22.0962 13.0742 21.6923 13.5081 21.6173C14.1388 21.5077 14.5283 21.9481 14.5283 22.5981C14.5283 23.2942 14.0963 23.75 13.4445 23.6346C13.0202 23.5596 12.6653 23.0846 12.2796 22.7866C12.2835 22.6423 12.2873 22.4981 12.2912 22.3519L12.2931 22.3539Z" fill="#00AD9C"/>
</g>
<defs>
<clipPath id="clip0_566_474">
<rect width="69" height="27" fill="white" transform="translate(27 1.18021e-06) rotate(90)"/>
</clipPath>
</defs>
</svg>
