<svg width="1806" height="332" viewBox="0 0 1806 332" fill="none" xmlns="http://www.w3.org/2000/svg">
<path d="M413.927 52.2454C341.809 132.689 205.073 259.479 165 331.543H1288C1222.94 262.595 1081.5 133.119 1017.86 84.9664C965.311 45.2113 968.355 -8.28223 701.042 238.294C444 -8.45755 506 -50.4573 413.927 52.2454Z" fill="#151414"/>
<path d="M1308.13 136.668C1272.17 190.047 1203.98 274.181 1184 322H1744C1711.56 276.249 1641.03 190.333 1609.29 158.381C1583.09 132.001 1584.6 96.5042 1451.3 260.124C1323.13 96.3879 1354.04 68.5183 1308.13 136.668Z" fill="#151414"/>
<path d="M199.94 92.4056C138.021 157.214 32.1872 269.841 0 331.542H902C849.743 272.509 736.141 161.651 685.02 120.422C642.814 86.383 645.259 40.5813 430.552 251.702C293.093 97.614 259.013 30.5755 199.94 92.4056Z" fill="#13171B"/>
<path d="M1110.17 62.2853C1048.8 135.257 943.902 262.069 912 331.542H1806C1754.21 265.073 1641.61 140.252 1590.94 93.8302C1549.11 55.5041 1551.54 3.93354 1338.73 241.646C1202.49 68.1497 1168.72 -7.33255 1110.17 62.2853Z" fill="#141A1F"/>
</svg>
