<svg width="1446" height="332" viewBox="0 0 1446 332" fill="none" xmlns="http://www.w3.org/2000/svg">
<path d="M463.927 52.2454C391.809 132.689 255.073 259.479 215 331.543H1338C1272.94 262.595 1131.5 133.119 1067.86 84.9664C1015.31 45.2113 1018.36 -8.28223 751.042 238.294C494 -8.45755 556 -50.4573 463.927 52.2454Z" fill="#151414"/>
<path d="M199.94 92.4056C138.021 157.214 32.1872 269.841 0 331.542H902C849.743 272.509 736.141 161.651 685.02 120.422C642.814 86.383 645.259 40.5813 430.552 251.702C293.093 97.614 259.013 30.5755 199.94 92.4056Z" fill="#13171B"/>
<path d="M750.166 62.2853C688.797 135.257 583.902 262.069 552 331.542H1446C1394.21 265.073 1281.61 140.252 1230.94 93.8302C1189.11 55.5041 1191.54 3.93354 978.733 241.646C842.494 68.1497 808.715 -7.33255 750.166 62.2853Z" fill="#141A1F"/>
</svg>
