<svg width="881" height="406" viewBox="0 0 881 406" fill="none" xmlns="http://www.w3.org/2000/svg">
<path d="M836.039 116.629L846.285 115.614L613.302 399.542L605.191 400.346L836.039 116.629Z" fill="#FCFCFC"/>
<path d="M870.112 106.644L880.37 105.614L646.775 390.289L638.655 391.105L870.112 106.644Z" fill="#47545E"/>
<path d="M557.384 105.286L567.911 105.235L296.5 400.5L286 400.5L557.384 105.286Z" fill="#FCFCFC"/>
<path d="M585.484 105.286L596.012 105.235L324.6 400.5L314.1 400.5L585.484 105.286Z" fill="#47545E"/>
<path d="M445.5 0L444.5 53L86 373L0.5 370L445.5 0Z" fill="#5C93BE"/>
<path d="M85 373L445 53V65L99.5 400L86 400.5L85 373Z" fill="#47545E"/>
<path d="M0 370L85 373L86.5 401L0 398V370Z" fill="#4D4D4D"/>
</svg>
