<svg width="986" height="939" viewBox="0 0 986 939" fill="none" xmlns="http://www.w3.org/2000/svg">
<path d="M368 877.437H986V295C918 295 893 295 852 326C811 357 368 877.437 368 877.437Z" fill="#13171B"/>
<path d="M461.566 121.319C382.873 93.6329 311.242 81 285.011 81C475.489 125.334 502.011 288 496.877 334.927V543.498V632.669L617.44 521.331C721.86 425.61 735.146 412.394 810.642 349.033C870.671 298.654 925.319 303.692 966.011 295.631V163.637C950.541 167.332 904.469 174.217 778.357 174.217C585.369 174.217 557.915 155.216 461.566 121.319Z" fill="#242425"/>
<path d="M731.444 219.054L793.957 223.085V314.271L729.426 346.01L731.444 219.054Z" fill="#0A0E10"/>
<path d="M817.8 224.092H883.282L881.264 281.021L816.19 306.714L817.8 224.092Z" fill="#0A0E10"/>
<path d="M903.051 219.054L963.993 218.047V273.968L903.051 277.495L903.051 219.054Z" fill="#0A0E10"/>
<path d="M639.131 216.031L701.643 222.581V361.124L636.608 407.977L639.131 216.031Z" fill="#0A0E10"/>
<path d="M532.188 187.819L608.864 207.971L611.386 421.076L541.268 472.966L532.188 187.819Z" fill="#0A0E10"/>
<path d="M1.00879 540.169H501.011V621.169C501.011 637.185 488.027 650.169 472.011 650.169H30.0088C13.9925 650.169 1.00879 637.185 1.00879 621.169V540.169Z" fill="#0A0E10"/>
<rect x="118.539" y="568.169" width="264.941" height="4" rx="2" fill="#5B5858"/>
<rect x="118.539" y="591.169" width="264.941" height="4" rx="2" fill="#5B5858"/>
<rect x="118.539" y="614.169" width="264.941" height="4" rx="2" fill="#5B5858"/>
<path d="M70.2324 566.669C84.5257 566.669 96.123 578.304 96.123 592.669C96.123 607.034 84.5257 618.669 70.2324 618.669C55.9391 618.669 44.3418 607.034 44.3418 592.669C44.3418 578.304 55.9391 566.669 70.2324 566.669Z" fill="#FABC3A" stroke="#FCFCFC" stroke-width="3"/>
<path d="M430.792 566.669C445.085 566.669 456.682 578.304 456.682 592.669C456.682 607.034 445.085 618.669 430.792 618.669C416.498 618.669 404.901 607.034 404.901 592.669C404.901 578.304 416.498 566.669 430.792 566.669Z" fill="#FABC3A" stroke="#FCFCFC" stroke-width="3"/>
<path d="M0.0107012 329.169V542.168H499.011V317.169C499.011 211.169 407.914 73.5146 243.011 79.1687C68.0107 85.1689 -0.989299 252.836 0.0107012 329.169Z" fill="#4D4D4D"/>
<path d="M49.0196 351.321V542.169H454.011L455.011 340.569C463.011 243.169 382.011 128.169 253.011 128.169C99.1585 128.169 43.011 263.169 49.0196 351.321Z" fill="white"/>
<rect x="145.011" y="492.169" width="217" height="4" rx="2" fill="#13171B"/>
<rect x="145.011" y="507.169" width="217" height="4" rx="2" fill="#13171B"/>
<rect x="89.0107" y="488.169" width="49" height="26" rx="7" fill="#F18810"/>
<rect x="372.011" y="488.169" width="49" height="26" rx="7" fill="#F18810"/>
<rect x="87.0107" y="277.169" width="334" height="180" rx="8" fill="#0A0E10"/>
<line x1="199.597" y1="398.169" x2="148.011" y2="346.583" stroke="#FCFCFC" stroke-width="2" stroke-linecap="round"/>
<line x1="301.597" y1="420.169" x2="206.011" y2="324.583" stroke="#FCFCFC" stroke-width="2" stroke-linecap="round"/>
<line x1="360.597" y1="398.169" x2="310.011" y2="347.583" stroke="#FCFCFC" stroke-width="2" stroke-linecap="round"/>
<rect x="151.511" y="196.669" width="187" height="54" rx="9.5" fill="#BAC8D6" stroke="#BAC8D6"/>
<rect x="243.011" y="205.169" width="4" height="38" rx="2" fill="#FCFCFC"/>
<rect x="233.011" y="205.169" width="4" height="38" rx="2" fill="#FCFCFC"/>
<rect x="223.011" y="205.169" width="4" height="38" rx="2" fill="#FCFCFC"/>
<rect x="213.011" y="205.169" width="4" height="38" rx="2" fill="#FCFCFC"/>
<rect x="204.011" y="205.169" width="4" height="38" rx="2" fill="#FCFCFC"/>
<rect x="194.011" y="205.169" width="4" height="38" rx="2" fill="#FCFCFC"/>
<rect x="184.011" y="205.169" width="4" height="38" rx="2" fill="#FCFCFC"/>
<rect x="175.011" y="205.169" width="4" height="38" rx="2" fill="#FCFCFC"/>
<rect x="164.011" y="205.169" width="4" height="38" rx="2" fill="#FCFCFC"/>
<rect x="320.011" y="205.169" width="4" height="38" rx="2" fill="#FCFCFC"/>
<rect x="310.011" y="205.169" width="4" height="38" rx="2" fill="#FCFCFC"/>
<rect x="301.011" y="205.169" width="4" height="38" rx="2" fill="#FCFCFC"/>
<rect x="291.011" y="205.169" width="4" height="38" rx="2" fill="#FCFCFC"/>
<rect x="281.011" y="205.169" width="4" height="38" rx="2" fill="#FCFCFC"/>
<rect x="272.011" y="205.169" width="4" height="38" rx="2" fill="#FCFCFC"/>
<rect x="263.011" y="205.169" width="4" height="38" rx="2" fill="#FCFCFC"/>
<rect x="253.011" y="205.169" width="4" height="38" rx="2" fill="#FCFCFC"/>
<rect x="960" width="26" height="295" fill="#313F4F"/>
<rect x="368" y="877" width="618" height="62" fill="#1C272D"/>
</svg>
